<mxfile host="Electron" modified="2023-10-11T13:25:19.456Z" agent="Mozilla/5.0 (Windows NT 10.0; Win64; x64) AppleWebKit/537.36 (KHTML, like Gecko) draw.io/22.0.2 Chrome/114.0.5735.289 Electron/25.8.4 Safari/537.36" etag="rp7qvLsgVJvIN7Se6zQJ" version="22.0.2" type="device">
  <diagram name="Page-1" id="lBCJRUh4xkEyT_U7JVPE">
    <mxGraphModel dx="1098" dy="820" grid="1" gridSize="10" guides="1" tooltips="1" connect="1" arrows="1" fold="1" page="1" pageScale="1" pageWidth="1169" pageHeight="827" math="0" shadow="0">
      <root>
        <mxCell id="0" />
        <mxCell id="1" parent="0" />
        <mxCell id="NHit4Ja9ZpUZPAq9eXY0-17" value="Libraries" style="text;html=1;strokeColor=none;fillColor=none;align=center;verticalAlign=middle;whiteSpace=wrap;rounded=0;fontStyle=1;fontFamily=Roboto;fontSource=https%3A%2F%2Ffonts.googleapis.com%2Fcss%3Ffamily%3DRoboto;fontSize=20;" parent="1" vertex="1">
          <mxGeometry x="40" y="50" width="140" height="30" as="geometry" />
        </mxCell>
        <mxCell id="NHit4Ja9ZpUZPAq9eXY0-18" value="Libraries" style="text;html=1;strokeColor=none;fillColor=none;align=center;verticalAlign=middle;whiteSpace=wrap;rounded=0;fontStyle=1;fontFamily=Roboto;fontSource=https%3A%2F%2Ffonts.googleapis.com%2Fcss%3Ffamily%3DRoboto;fontSize=20;" parent="1" vertex="1">
          <mxGeometry x="40" y="50" width="140" height="30" as="geometry" />
        </mxCell>
        <mxCell id="NHit4Ja9ZpUZPAq9eXY0-19" value="Utilities" style="text;html=1;strokeColor=none;fillColor=none;align=center;verticalAlign=middle;whiteSpace=wrap;rounded=0;fontStyle=1;fontFamily=Roboto;fontSource=https%3A%2F%2Ffonts.googleapis.com%2Fcss%3Ffamily%3DRoboto;fontSize=20;" parent="1" vertex="1">
          <mxGeometry x="280" y="50" width="140" height="30" as="geometry" />
        </mxCell>
        <mxCell id="NHit4Ja9ZpUZPAq9eXY0-20" value="Structures &amp;amp; Shared Utils" style="text;html=1;strokeColor=none;fillColor=none;align=center;verticalAlign=middle;whiteSpace=wrap;rounded=0;fontStyle=1;fontFamily=Roboto;fontSource=https%3A%2F%2Ffonts.googleapis.com%2Fcss%3Ffamily%3DRoboto;fontSize=20;" parent="1" vertex="1">
          <mxGeometry x="500" y="50" width="140" height="30" as="geometry" />
        </mxCell>
        <mxCell id="NHit4Ja9ZpUZPAq9eXY0-25" value="" style="endArrow=block;html=1;rounded=0;strokeWidth=4;endFill=1;fillColor=#f5f5f5;strokeColor=#333333;entryX=0;entryY=0.25;entryDx=0;entryDy=0;exitX=1;exitY=0.25;exitDx=0;exitDy=0;" parent="1" source="NHit4Ja9ZpUZPAq9eXY0-7" target="NHit4Ja9ZpUZPAq9eXY0-11" edge="1">
          <mxGeometry width="50" height="50" relative="1" as="geometry">
            <mxPoint x="90" y="420" as="sourcePoint" />
            <mxPoint x="200" y="330" as="targetPoint" />
          </mxGeometry>
        </mxCell>
        <mxCell id="NHit4Ja9ZpUZPAq9eXY0-26" value="" style="endArrow=block;html=1;rounded=0;strokeWidth=4;endFill=1;fillColor=#f5f5f5;strokeColor=#333333;entryX=0;entryY=0.25;entryDx=0;entryDy=0;exitX=1;exitY=0.25;exitDx=0;exitDy=0;" parent="1" source="NHit4Ja9ZpUZPAq9eXY0-5" target="NHit4Ja9ZpUZPAq9eXY0-12" edge="1">
          <mxGeometry width="50" height="50" relative="1" as="geometry">
            <mxPoint x="190" y="150" as="sourcePoint" />
            <mxPoint x="290" y="150" as="targetPoint" />
          </mxGeometry>
        </mxCell>
        <mxCell id="NHit4Ja9ZpUZPAq9eXY0-27" value="" style="endArrow=block;html=1;strokeWidth=4;endFill=1;fillColor=#f5f5f5;strokeColor=#333333;exitX=1;exitY=0.5;exitDx=0;exitDy=0;entryX=0;entryY=0.25;entryDx=0;entryDy=0;edgeStyle=orthogonalEdgeStyle;rounded=1;" parent="1" source="NHit4Ja9ZpUZPAq9eXY0-11" target="NHit4Ja9ZpUZPAq9eXY0-10" edge="1">
          <mxGeometry width="50" height="50" relative="1" as="geometry">
            <mxPoint x="190" y="230" as="sourcePoint" />
            <mxPoint x="500" y="150" as="targetPoint" />
            <Array as="points">
              <mxPoint x="440" y="140" />
              <mxPoint x="440" y="170" />
            </Array>
          </mxGeometry>
        </mxCell>
        <mxCell id="NHit4Ja9ZpUZPAq9eXY0-28" value="" style="endArrow=block;html=1;rounded=1;strokeWidth=4;endFill=1;fillColor=#f5f5f5;strokeColor=#333333;entryX=0;entryY=0.75;entryDx=0;entryDy=0;exitX=1;exitY=0.5;exitDx=0;exitDy=0;edgeStyle=orthogonalEdgeStyle;" parent="1" source="NHit4Ja9ZpUZPAq9eXY0-12" target="NHit4Ja9ZpUZPAq9eXY0-10" edge="1">
          <mxGeometry width="50" height="50" relative="1" as="geometry">
            <mxPoint x="200" y="240" as="sourcePoint" />
            <mxPoint x="300" y="240" as="targetPoint" />
            <Array as="points">
              <mxPoint x="440" y="220" />
              <mxPoint x="440" y="190" />
            </Array>
          </mxGeometry>
        </mxCell>
        <mxCell id="NHit4Ja9ZpUZPAq9eXY0-29" value="" style="endArrow=block;html=1;rounded=0;strokeWidth=4;endFill=1;fillColor=#f5f5f5;strokeColor=#333333;entryX=0;entryY=0.5;entryDx=0;entryDy=0;exitX=1;exitY=0.5;exitDx=0;exitDy=0;" parent="1" source="NHit4Ja9ZpUZPAq9eXY0-21" target="NHit4Ja9ZpUZPAq9eXY0-22" edge="1">
          <mxGeometry width="50" height="50" relative="1" as="geometry">
            <mxPoint x="150" y="430" as="sourcePoint" />
            <mxPoint x="250" y="430" as="targetPoint" />
          </mxGeometry>
        </mxCell>
        <mxCell id="NHit4Ja9ZpUZPAq9eXY0-31" value="" style="endArrow=block;html=1;rounded=0;strokeWidth=4;endFill=1;fillColor=#f5f5f5;strokeColor=#333333;entryX=0;entryY=0.5;entryDx=0;entryDy=0;exitX=1;exitY=0.5;exitDx=0;exitDy=0;" parent="1" source="NHit4Ja9ZpUZPAq9eXY0-9" target="NHit4Ja9ZpUZPAq9eXY0-8" edge="1">
          <mxGeometry width="50" height="50" relative="1" as="geometry">
            <mxPoint x="440" y="400" as="sourcePoint" />
            <mxPoint x="540" y="400" as="targetPoint" />
          </mxGeometry>
        </mxCell>
        <mxCell id="NHit4Ja9ZpUZPAq9eXY0-8" value="UUID Commons" style="rounded=1;whiteSpace=wrap;html=1;fillColor=#e1d5e7;strokeColor=#9673a6;fontFamily=Roboto;fontStyle=1;fontSize=16;fontSource=https%3A%2F%2Ffonts.googleapis.com%2Fcss%3Ffamily%3DRoboto;shadow=0;glass=0;strokeWidth=2;fontColor=#1A1A1A;" parent="1" vertex="1">
          <mxGeometry x="500" y="440" width="140" height="40" as="geometry" />
        </mxCell>
        <mxCell id="NHit4Ja9ZpUZPAq9eXY0-10" value="Linked List Commons" style="rounded=1;whiteSpace=wrap;html=1;fillColor=#e1d5e7;strokeColor=#9673a6;fontFamily=Roboto;fontStyle=1;fontSize=16;fontSource=https%3A%2F%2Ffonts.googleapis.com%2Fcss%3Ffamily%3DRoboto;shadow=0;glass=0;strokeWidth=2;fontColor=#1A1A1A;" parent="1" vertex="1">
          <mxGeometry x="500" y="160" width="140" height="40" as="geometry" />
        </mxCell>
        <mxCell id="NHit4Ja9ZpUZPAq9eXY0-22" value="HashMap Commons" style="rounded=1;whiteSpace=wrap;html=1;fillColor=#e1d5e7;strokeColor=#9673a6;fontFamily=Roboto;fontStyle=1;fontSize=16;fontSource=https%3A%2F%2Ffonts.googleapis.com%2Fcss%3Ffamily%3DRoboto;shadow=0;glass=0;strokeWidth=2;fontColor=#1A1A1A;" parent="1" vertex="1">
          <mxGeometry x="500" y="360" width="140" height="40" as="geometry" />
        </mxCell>
        <mxCell id="NHit4Ja9ZpUZPAq9eXY0-9" value="UUID4" style="rounded=1;whiteSpace=wrap;html=1;fillColor=#e1d5e7;strokeColor=#9673a6;fontFamily=Roboto;fontStyle=1;fontSize=16;fontSource=https%3A%2F%2Ffonts.googleapis.com%2Fcss%3Ffamily%3DRoboto;shadow=0;glass=0;strokeWidth=2;fontColor=#1A1A1A;" parent="1" vertex="1">
          <mxGeometry x="280" y="440" width="140" height="40" as="geometry" />
        </mxCell>
        <mxCell id="NHit4Ja9ZpUZPAq9eXY0-11" value="Single Linked List" style="rounded=1;whiteSpace=wrap;html=1;fillColor=#e1d5e7;strokeColor=#9673a6;fontFamily=Roboto;fontStyle=1;fontSize=16;fontSource=https%3A%2F%2Ffonts.googleapis.com%2Fcss%3Ffamily%3DRoboto;shadow=0;glass=0;strokeWidth=2;fontColor=#1A1A1A;" parent="1" vertex="1">
          <mxGeometry x="280" y="120" width="140" height="40" as="geometry" />
        </mxCell>
        <mxCell id="NHit4Ja9ZpUZPAq9eXY0-12" value="Double Linked List" style="rounded=1;whiteSpace=wrap;html=1;fillColor=#e1d5e7;strokeColor=#9673a6;fontFamily=Roboto;fontStyle=1;fontSize=16;fontSource=https%3A%2F%2Ffonts.googleapis.com%2Fcss%3Ffamily%3DRoboto;shadow=0;glass=0;strokeWidth=2;fontColor=#1A1A1A;" parent="1" vertex="1">
          <mxGeometry x="280" y="200" width="140" height="40" as="geometry" />
        </mxCell>
        <mxCell id="NHit4Ja9ZpUZPAq9eXY0-13" value="CRC32" style="rounded=1;whiteSpace=wrap;html=1;fillColor=#e1d5e7;strokeColor=#9673a6;fontFamily=Roboto;fontStyle=1;fontSize=16;fontSource=https%3A%2F%2Ffonts.googleapis.com%2Fcss%3Ffamily%3DRoboto;shadow=0;glass=0;strokeWidth=2;fontColor=#1A1A1A;" parent="1" vertex="1">
          <mxGeometry x="280" y="520" width="140" height="40" as="geometry" />
        </mxCell>
        <mxCell id="NHit4Ja9ZpUZPAq9eXY0-21" value="Chained HashMap" style="rounded=1;whiteSpace=wrap;html=1;fillColor=#e1d5e7;strokeColor=#9673a6;fontFamily=Roboto;fontStyle=1;fontSize=16;fontSource=https%3A%2F%2Ffonts.googleapis.com%2Fcss%3Ffamily%3DRoboto;shadow=0;glass=0;strokeWidth=2;fontColor=#1A1A1A;" parent="1" vertex="1">
          <mxGeometry x="280" y="360" width="140" height="40" as="geometry" />
        </mxCell>
        <mxCell id="OFWPvh2tzDeWrshkorwF-3" style="edgeStyle=orthogonalEdgeStyle;orthogonalLoop=1;jettySize=auto;html=1;exitX=1;exitY=0.75;exitDx=0;exitDy=0;entryX=0;entryY=0.75;entryDx=0;entryDy=0;strokeColor=#333333;endArrow=block;endFill=1;strokeWidth=4;rounded=1;" edge="1" parent="1" source="NHit4Ja9ZpUZPAq9eXY0-5" target="OFWPvh2tzDeWrshkorwF-1">
          <mxGeometry relative="1" as="geometry">
            <Array as="points">
              <mxPoint x="200" y="230" />
              <mxPoint x="200" y="310" />
            </Array>
          </mxGeometry>
        </mxCell>
        <mxCell id="NHit4Ja9ZpUZPAq9eXY0-5" value="Arguments" style="rounded=1;whiteSpace=wrap;html=1;fillColor=#e1d5e7;strokeColor=#9673a6;fontFamily=Roboto;fontStyle=1;fontSize=16;fontSource=https%3A%2F%2Ffonts.googleapis.com%2Fcss%3Ffamily%3DRoboto;shadow=0;glass=0;strokeWidth=2;fontColor=#1A1A1A;" parent="1" vertex="1">
          <mxGeometry x="40" y="200" width="140" height="40" as="geometry" />
        </mxCell>
        <mxCell id="OFWPvh2tzDeWrshkorwF-2" style="edgeStyle=orthogonalEdgeStyle;rounded=1;orthogonalLoop=1;jettySize=auto;html=1;exitX=1;exitY=0.75;exitDx=0;exitDy=0;entryX=0;entryY=0.25;entryDx=0;entryDy=0;strokeColor=#333333;endArrow=block;endFill=1;strokeWidth=4;jumpStyle=arc;" edge="1" parent="1" source="NHit4Ja9ZpUZPAq9eXY0-7" target="OFWPvh2tzDeWrshkorwF-1">
          <mxGeometry relative="1" as="geometry">
            <Array as="points">
              <mxPoint x="220" y="150" />
              <mxPoint x="220" y="290" />
            </Array>
          </mxGeometry>
        </mxCell>
        <mxCell id="NHit4Ja9ZpUZPAq9eXY0-7" value="INI Parser" style="rounded=1;whiteSpace=wrap;html=1;fillColor=#e1d5e7;strokeColor=#9673a6;fontFamily=Roboto;fontStyle=1;fontSize=16;fontSource=https%3A%2F%2Ffonts.googleapis.com%2Fcss%3Ffamily%3DRoboto;shadow=0;glass=0;strokeWidth=2;fontColor=#1A1A1A;" parent="1" vertex="1">
          <mxGeometry x="40" y="120" width="140" height="40" as="geometry" />
        </mxCell>
        <mxCell id="NHit4Ja9ZpUZPAq9eXY0-32" value="" style="endArrow=none;dashed=1;html=1;dashPattern=1 3;strokeWidth=2;rounded=0;fillColor=#f5f5f5;strokeColor=#666666;" parent="1" edge="1">
          <mxGeometry width="50" height="50" relative="1" as="geometry">
            <mxPoint x="240" y="490" as="sourcePoint" />
            <mxPoint x="240" y="40" as="targetPoint" />
          </mxGeometry>
        </mxCell>
        <mxCell id="NHit4Ja9ZpUZPAq9eXY0-33" value="" style="endArrow=none;dashed=1;html=1;dashPattern=1 3;strokeWidth=2;rounded=0;fillColor=#f5f5f5;strokeColor=#666666;" parent="1" edge="1">
          <mxGeometry width="50" height="50" relative="1" as="geometry">
            <mxPoint x="460" y="490" as="sourcePoint" />
            <mxPoint x="460" y="40" as="targetPoint" />
          </mxGeometry>
        </mxCell>
        <mxCell id="OFWPvh2tzDeWrshkorwF-1" value="Text Manipulation" style="rounded=1;whiteSpace=wrap;html=1;fillColor=#e1d5e7;strokeColor=#9673a6;fontFamily=Roboto;fontStyle=1;fontSize=16;fontSource=https%3A%2F%2Ffonts.googleapis.com%2Fcss%3Ffamily%3DRoboto;shadow=0;glass=0;strokeWidth=2;fontColor=#1A1A1A;" vertex="1" parent="1">
          <mxGeometry x="280" y="280" width="140" height="40" as="geometry" />
        </mxCell>
      </root>
    </mxGraphModel>
  </diagram>
</mxfile>
